<svg width="94" height="13" viewBox="0 0 94 13" fill="none" xmlns="http://www.w3.org/2000/svg">
<path d="M0.758523 10V1.27273H6.6392V2.79403H2.60369V4.87358H6.33665V6.39489H2.60369V8.47869H6.65625V10H0.758523ZM9.93857 10.1236C9.52095 10.1236 9.14879 10.0511 8.82209 9.90625C8.49538 9.75852 8.23686 9.54119 8.04652 9.25426C7.85902 8.96449 7.76527 8.60369 7.76527 8.17188C7.76527 7.80824 7.83203 7.50284 7.96555 7.25568C8.09908 7.00852 8.28089 6.80966 8.51101 6.65909C8.74112 6.50852 9.00249 6.39489 9.2951 6.31818C9.59055 6.24148 9.90021 6.1875 10.2241 6.15625C10.6048 6.11648 10.9116 6.07955 11.1445 6.04545C11.3775 6.00852 11.5465 5.95455 11.6516 5.88352C11.7567 5.8125 11.8093 5.70739 11.8093 5.56818V5.54261C11.8093 5.27273 11.7241 5.06392 11.5536 4.91619C11.386 4.76847 11.1474 4.6946 10.8377 4.6946C10.511 4.6946 10.2511 4.76705 10.0579 4.91193C9.8647 5.05398 9.73686 5.23295 9.67436 5.44886L7.99538 5.3125C8.08061 4.91477 8.24822 4.57102 8.49822 4.28125C8.74822 3.98864 9.07067 3.7642 9.46555 3.60795C9.86328 3.44886 10.3235 3.36932 10.8462 3.36932C11.2099 3.36932 11.5579 3.41193 11.8903 3.49716C12.2255 3.58239 12.5224 3.71449 12.7809 3.89347C13.0423 4.07244 13.2482 4.30256 13.3988 4.58381C13.5494 4.86222 13.6246 5.19602 13.6246 5.58523V10H11.9031V9.09233H11.8519C11.7468 9.29688 11.6062 9.47727 11.43 9.63352C11.2539 9.78693 11.0423 9.90767 10.7951 9.99574C10.5479 10.081 10.2624 10.1236 9.93857 10.1236ZM10.4585 8.87074C10.7255 8.87074 10.9613 8.81818 11.1658 8.71307C11.3704 8.60511 11.5309 8.46023 11.6474 8.27841C11.7638 8.09659 11.8221 7.89062 11.8221 7.66051V6.96591C11.7653 7.00284 11.6871 7.03693 11.5877 7.06818C11.4911 7.09659 11.3817 7.12358 11.2596 7.14915C11.1374 7.17187 11.0153 7.19318 10.8931 7.21307C10.771 7.23011 10.6602 7.24574 10.5607 7.25994C10.3477 7.29119 10.1616 7.34091 10.0025 7.40909C9.84339 7.47727 9.71982 7.5696 9.63175 7.68608C9.54368 7.79972 9.49964 7.94176 9.49964 8.11222C9.49964 8.35938 9.58913 8.5483 9.76811 8.67898C9.94993 8.80682 10.18 8.87074 10.4585 8.87074ZM20.479 5.32102L18.8171 5.4233C18.7887 5.28125 18.7276 5.15341 18.6339 5.03977C18.5401 4.9233 18.4165 4.83097 18.2631 4.76278C18.1126 4.69176 17.9322 4.65625 17.7219 4.65625C17.4407 4.65625 17.2035 4.71591 17.0103 4.83523C16.8171 4.9517 16.7205 5.10795 16.7205 5.30398C16.7205 5.46023 16.783 5.59233 16.908 5.70028C17.033 5.80824 17.2475 5.89489 17.5515 5.96023L18.7362 6.19886C19.3725 6.32955 19.8469 6.53977 20.1594 6.82955C20.4719 7.11932 20.6282 7.5 20.6282 7.97159C20.6282 8.40057 20.5018 8.77699 20.2489 9.10085C19.9989 9.42472 19.6552 9.67756 19.2177 9.85938C18.783 10.0384 18.2816 10.1278 17.7134 10.1278C16.8469 10.1278 16.1566 9.94744 15.6424 9.58665C15.131 9.22301 14.8313 8.72869 14.7433 8.10369L16.5288 8.00994C16.5827 8.27415 16.7134 8.47585 16.9208 8.61506C17.1282 8.75142 17.3938 8.8196 17.7177 8.8196C18.0359 8.8196 18.2915 8.75852 18.4847 8.63636C18.6808 8.51136 18.7802 8.35085 18.783 8.15483C18.7802 7.99006 18.7106 7.85511 18.5742 7.75C18.4379 7.64205 18.2276 7.55966 17.9435 7.50284L16.81 7.27699C16.1708 7.14915 15.695 6.92756 15.3825 6.61222C15.0728 6.29687 14.918 5.89489 14.918 5.40625C14.918 4.9858 15.0316 4.62358 15.2589 4.3196C15.489 4.01562 15.8114 3.78125 16.2262 3.61648C16.6438 3.4517 17.1325 3.36932 17.6921 3.36932C18.5188 3.36932 19.1694 3.54403 19.6438 3.89347C20.1211 4.2429 20.3995 4.71875 20.479 5.32102ZM22.892 12.4545C22.6619 12.4545 22.446 12.4361 22.2443 12.3991C22.0455 12.3651 21.8807 12.321 21.75 12.267L22.1591 10.9119C22.3722 10.9773 22.5639 11.0128 22.7344 11.0185C22.9077 11.0241 23.0568 10.9844 23.1818 10.8991C23.3097 10.8139 23.4134 10.669 23.4929 10.4645L23.5994 10.1875L21.2514 3.45455H23.1605L24.5156 8.26136H24.5838L25.9517 3.45455H27.8736L25.3295 10.7074C25.2074 11.0597 25.0412 11.3665 24.831 11.6278C24.6236 11.892 24.3608 12.0952 24.0426 12.2372C23.7244 12.3821 23.3409 12.4545 22.892 12.4545ZM31.614 10V1.27273H35.1083C35.7504 1.27273 36.2859 1.3679 36.7148 1.55824C37.1438 1.74858 37.4663 2.01278 37.6822 2.35085C37.8981 2.68608 38.006 3.07244 38.006 3.50994C38.006 3.85085 37.9379 4.15057 37.8015 4.40909C37.6651 4.66477 37.4776 4.875 37.239 5.03977C37.0032 5.2017 36.7333 5.31676 36.4293 5.38494V5.47017C36.7617 5.48437 37.0728 5.57812 37.3626 5.75142C37.6552 5.92472 37.8924 6.16761 38.0742 6.48011C38.256 6.78977 38.3469 7.15909 38.3469 7.58807C38.3469 8.05114 38.2319 8.46449 38.0018 8.82812C37.7745 9.18892 37.4379 9.47443 36.9918 9.68466C36.5458 9.89489 35.9961 10 35.3427 10H31.614ZM33.4592 8.49148H34.9634C35.4776 8.49148 35.8526 8.39347 36.0884 8.19744C36.3242 7.99858 36.4421 7.73437 36.4421 7.40483C36.4421 7.16335 36.3839 6.95028 36.2674 6.76562C36.1509 6.58097 35.9847 6.43608 35.7688 6.33097C35.5558 6.22585 35.3015 6.1733 35.006 6.1733H33.4592V8.49148ZM33.4592 4.92472H34.8271C35.0799 4.92472 35.3043 4.88068 35.5004 4.79261C35.6992 4.7017 35.8555 4.57386 35.9691 4.40909C36.0856 4.24432 36.1438 4.04688 36.1438 3.81676C36.1438 3.50142 36.0316 3.24716 35.8072 3.05398C35.5856 2.8608 35.2702 2.7642 34.8612 2.7642H33.4592V4.92472ZM42.4709 10.1278C41.8089 10.1278 41.2365 9.98722 40.7536 9.70597C40.2734 9.42187 39.9027 9.02699 39.6413 8.52131C39.38 8.01278 39.2493 7.4233 39.2493 6.75284C39.2493 6.0767 39.38 5.4858 39.6413 4.98011C39.9027 4.47159 40.2734 4.0767 40.7536 3.79545C41.2365 3.51136 41.8089 3.36932 42.4709 3.36932C43.1328 3.36932 43.7038 3.51136 44.1839 3.79545C44.6669 4.0767 45.0391 4.47159 45.3004 4.98011C45.5618 5.4858 45.6925 6.0767 45.6925 6.75284C45.6925 7.4233 45.5618 8.01278 45.3004 8.52131C45.0391 9.02699 44.6669 9.42187 44.1839 9.70597C43.7038 9.98722 43.1328 10.1278 42.4709 10.1278ZM42.4794 8.72159C42.7805 8.72159 43.032 8.63636 43.2337 8.46591C43.4354 8.29261 43.5874 8.05682 43.6896 7.75852C43.7947 7.46023 43.8473 7.12074 43.8473 6.74006C43.8473 6.35938 43.7947 6.01989 43.6896 5.72159C43.5874 5.4233 43.4354 5.1875 43.2337 5.0142C43.032 4.84091 42.7805 4.75426 42.4794 4.75426C42.1754 4.75426 41.9197 4.84091 41.7124 5.0142C41.5078 5.1875 41.353 5.4233 41.2479 5.72159C41.1456 6.01989 41.0945 6.35938 41.0945 6.74006C41.0945 7.12074 41.1456 7.46023 41.2479 7.75852C41.353 8.05682 41.5078 8.29261 41.7124 8.46591C41.9197 8.63636 42.1754 8.72159 42.4794 8.72159ZM46.8729 10V3.45455H48.6882V10H46.8729ZM47.7848 2.6108C47.5149 2.6108 47.2834 2.52131 47.0902 2.34233C46.8999 2.16051 46.8047 1.94318 46.8047 1.69034C46.8047 1.44034 46.8999 1.22585 47.0902 1.04688C47.2834 0.865057 47.5149 0.774147 47.7848 0.774147C48.0547 0.774147 48.2848 0.865057 48.4751 1.04688C48.6683 1.22585 48.7649 1.44034 48.7649 1.69034C48.7649 1.94318 48.6683 2.16051 48.4751 2.34233C48.2848 2.52131 48.0547 2.6108 47.7848 2.6108ZM51.9577 1.27273V10H50.1424V1.27273H51.9577ZM56.3949 10.1278C55.7216 10.1278 55.142 9.99148 54.6562 9.71875C54.1733 9.44318 53.8011 9.05398 53.5398 8.55114C53.2784 8.04545 53.1477 7.44744 53.1477 6.7571C53.1477 6.08381 53.2784 5.4929 53.5398 4.98438C53.8011 4.47585 54.169 4.07955 54.6435 3.79545C55.1207 3.51136 55.6804 3.36932 56.3224 3.36932C56.7543 3.36932 57.1563 3.43892 57.5284 3.57812C57.9034 3.71449 58.2301 3.92045 58.5085 4.19602C58.7898 4.47159 59.0085 4.81818 59.1648 5.2358C59.321 5.65057 59.3991 6.13636 59.3991 6.69318V7.19176H53.8722V6.06676H57.6903C57.6903 5.8054 57.6335 5.57386 57.5199 5.37216C57.4063 5.17045 57.2486 5.01278 57.0469 4.89915C56.848 4.78267 56.6165 4.72443 56.3523 4.72443C56.0767 4.72443 55.8324 4.78835 55.6193 4.91619C55.4091 5.04119 55.2443 5.21023 55.125 5.4233C55.0057 5.63352 54.9446 5.8679 54.9418 6.12642V7.19602C54.9418 7.51989 55.0014 7.79972 55.1207 8.03551C55.2429 8.27131 55.4148 8.45312 55.6364 8.58097C55.858 8.70881 56.1207 8.77273 56.4247 8.77273C56.6264 8.77273 56.8111 8.74432 56.9787 8.6875C57.1463 8.63068 57.2898 8.54545 57.4091 8.43182C57.5284 8.31818 57.6193 8.17898 57.6818 8.0142L59.3608 8.125C59.2756 8.52841 59.1009 8.88068 58.8366 9.18182C58.5753 9.48011 58.2372 9.71307 57.8224 9.88068C57.4105 10.0455 56.9347 10.1278 56.3949 10.1278ZM60.5838 10V3.45455H62.3438V4.59659H62.4119C62.5313 4.19034 62.7315 3.88352 63.0128 3.67614C63.294 3.46591 63.6179 3.3608 63.9844 3.3608C64.0753 3.3608 64.1733 3.36648 64.2784 3.37784C64.3835 3.3892 64.4759 3.40483 64.5554 3.42472V5.03551C64.4702 5.00994 64.3523 4.98722 64.2017 4.96733C64.0511 4.94744 63.9134 4.9375 63.7884 4.9375C63.5213 4.9375 63.2827 4.99574 63.0724 5.11222C62.8651 5.22585 62.7003 5.38494 62.5781 5.58949C62.4588 5.79403 62.3991 6.02983 62.3991 6.29688V10H60.5838ZM65.494 12.4545V3.45455H67.2837V4.55398H67.3647C67.4442 4.37784 67.5593 4.19886 67.7099 4.01705C67.8633 3.83239 68.0621 3.67898 68.3065 3.55682C68.5536 3.43182 68.8604 3.36932 69.2269 3.36932C69.7042 3.36932 70.1445 3.49432 70.5479 3.74432C70.9513 3.99148 71.2738 4.36506 71.5153 4.86506C71.7567 5.36222 71.8775 5.9858 71.8775 6.7358C71.8775 7.46591 71.7596 8.08239 71.5238 8.58523C71.2908 9.08523 70.9727 9.46449 70.5692 9.72301C70.1687 9.97869 69.7198 10.1065 69.2227 10.1065C68.8704 10.1065 68.5707 10.0483 68.3235 9.93182C68.0792 9.81534 67.8789 9.66903 67.7227 9.4929C67.5664 9.31392 67.4471 9.13352 67.3647 8.9517H67.3093V12.4545H65.494ZM67.271 6.72727C67.271 7.11648 67.3249 7.45597 67.4329 7.74574C67.5408 8.03551 67.6971 8.26136 67.9016 8.4233C68.1062 8.58239 68.3548 8.66193 68.6474 8.66193C68.9428 8.66193 69.1928 8.58097 69.3974 8.41903C69.6019 8.25426 69.7567 8.02699 69.8619 7.73722C69.9698 7.4446 70.0238 7.10795 70.0238 6.72727C70.0238 6.34943 69.9712 6.01705 69.8661 5.73011C69.761 5.44318 69.6062 5.21875 69.4016 5.05682C69.1971 4.89489 68.9457 4.81392 68.6474 4.81392C68.3519 4.81392 68.1019 4.89205 67.8974 5.0483C67.6957 5.20455 67.5408 5.42614 67.4329 5.71307C67.3249 6 67.271 6.33807 67.271 6.72727ZM74.9031 1.27273V10H73.0877V1.27273H74.9031ZM78.2237 10.1236C77.8061 10.1236 77.4339 10.0511 77.1072 9.90625C76.7805 9.75852 76.522 9.54119 76.3317 9.25426C76.1442 8.96449 76.0504 8.60369 76.0504 8.17188C76.0504 7.80824 76.1172 7.50284 76.2507 7.25568C76.3842 7.00852 76.5661 6.80966 76.7962 6.65909C77.0263 6.50852 77.2876 6.39489 77.5803 6.31818C77.8757 6.24148 78.1854 6.1875 78.5092 6.15625C78.8899 6.11648 79.1967 6.07955 79.4297 6.04545C79.6626 6.00852 79.8317 5.95455 79.9368 5.88352C80.0419 5.8125 80.0945 5.70739 80.0945 5.56818V5.54261C80.0945 5.27273 80.0092 5.06392 79.8388 4.91619C79.6712 4.76847 79.4325 4.6946 79.1229 4.6946C78.7962 4.6946 78.5362 4.76705 78.343 4.91193C78.1499 5.05398 78.022 5.23295 77.9595 5.44886L76.2805 5.3125C76.3658 4.91477 76.5334 4.57102 76.7834 4.28125C77.0334 3.98864 77.3558 3.7642 77.7507 3.60795C78.1484 3.44886 78.6087 3.36932 79.1314 3.36932C79.495 3.36932 79.843 3.41193 80.1754 3.49716C80.5107 3.58239 80.8075 3.71449 81.0661 3.89347C81.3274 4.07244 81.5334 4.30256 81.6839 4.58381C81.8345 4.86222 81.9098 5.19602 81.9098 5.58523V10H80.1882V9.09233H80.1371C80.032 9.29688 79.8913 9.47727 79.7152 9.63352C79.5391 9.78693 79.3274 9.90767 79.0803 9.99574C78.8331 10.081 78.5476 10.1236 78.2237 10.1236ZM78.7436 8.87074C79.0107 8.87074 79.2464 8.81818 79.451 8.71307C79.6555 8.60511 79.8161 8.46023 79.9325 8.27841C80.049 8.09659 80.1072 7.89062 80.1072 7.66051V6.96591C80.0504 7.00284 79.9723 7.03693 79.8729 7.06818C79.7763 7.09659 79.6669 7.12358 79.5447 7.14915C79.4226 7.17187 79.3004 7.19318 79.1783 7.21307C79.0561 7.23011 78.9453 7.24574 78.8459 7.25994C78.6328 7.29119 78.4467 7.34091 78.2876 7.40909C78.1286 7.47727 78.005 7.5696 77.9169 7.68608C77.8288 7.79972 77.7848 7.94176 77.7848 8.11222C77.7848 8.35938 77.8743 8.5483 78.0533 8.67898C78.2351 8.80682 78.4652 8.87074 78.7436 8.87074ZM86.7997 3.45455V4.81818H82.858V3.45455H86.7997ZM83.7528 1.88636H85.5682V7.98864C85.5682 8.15625 85.5938 8.28693 85.6449 8.38068C85.696 8.47159 85.767 8.53551 85.858 8.57244C85.9517 8.60937 86.0597 8.62784 86.1818 8.62784C86.267 8.62784 86.3523 8.62074 86.4375 8.60653C86.5227 8.58949 86.5881 8.5767 86.6335 8.56818L86.919 9.91903C86.8281 9.94744 86.7003 9.98011 86.5355 10.017C86.3707 10.0568 86.1705 10.081 85.9347 10.0895C85.4972 10.1065 85.1136 10.0483 84.7841 9.91477C84.4574 9.78125 84.2031 9.57386 84.0213 9.29261C83.8395 9.01136 83.75 8.65625 83.7528 8.22727V1.88636ZM90.8949 10.1278C90.2216 10.1278 89.642 9.99148 89.1562 9.71875C88.6733 9.44318 88.3011 9.05398 88.0398 8.55114C87.7784 8.04545 87.6477 7.44744 87.6477 6.7571C87.6477 6.08381 87.7784 5.4929 88.0398 4.98438C88.3011 4.47585 88.669 4.07955 89.1435 3.79545C89.6207 3.51136 90.1804 3.36932 90.8224 3.36932C91.2543 3.36932 91.6563 3.43892 92.0284 3.57812C92.4034 3.71449 92.7301 3.92045 93.0085 4.19602C93.2898 4.47159 93.5085 4.81818 93.6648 5.2358C93.821 5.65057 93.8991 6.13636 93.8991 6.69318V7.19176H88.3722V6.06676H92.1903C92.1903 5.8054 92.1335 5.57386 92.0199 5.37216C91.9063 5.17045 91.7486 5.01278 91.5469 4.89915C91.348 4.78267 91.1165 4.72443 90.8523 4.72443C90.5767 4.72443 90.3324 4.78835 90.1193 4.91619C89.9091 5.04119 89.7443 5.21023 89.625 5.4233C89.5057 5.63352 89.4446 5.8679 89.4418 6.12642V7.19602C89.4418 7.51989 89.5014 7.79972 89.6207 8.03551C89.7429 8.27131 89.9148 8.45312 90.1364 8.58097C90.358 8.70881 90.6207 8.77273 90.9247 8.77273C91.1264 8.77273 91.3111 8.74432 91.4787 8.6875C91.6463 8.63068 91.7898 8.54545 91.9091 8.43182C92.0284 8.31818 92.1193 8.17898 92.1818 8.0142L93.8608 8.125C93.7756 8.52841 93.6009 8.88068 93.3366 9.18182C93.0753 9.48011 92.7372 9.71307 92.3224 9.88068C91.9105 10.0455 91.4347 10.1278 90.8949 10.1278Z" fill="black"/>
</svg>
